<!-- Generator: Adobe Illustrator 25.2.1, SVG Export Plug-In  -->
<svg version="1.1" xmlns="http://www.w3.org/2000/svg" xmlns:xlink="http://www.w3.org/1999/xlink" x="0px" y="0px"
	 width="159.16px" height="159.17px" viewBox="0 0 159.16 159.17"
	 style="overflow:visible;enable-background:new 0 0 159.16 159.17;" xml:space="preserve">
<style type="text/css">
	.st0{fill:#FFFFFF;}
</style>
<defs>
</defs>
<path class="st0" d="M79.58,0C35.63,0,0,35.63,0,79.58c0,40.66,30.48,74.19,69.84,78.99l7,0.54c0.21,0.02,0.44,0.02,0.65,0.03
	c0.69,0.02,1.4,0.03,2.09,0.03c7.2,0,14.17-0.95,20.8-2.75c2.6-0.69,5.16-1.53,7.65-2.49c29.9-11.44,51.13-40.41,51.13-74.34
	C159.16,35.63,123.53,0,79.58,0z M115.87,70.84c1.26,1.2,1.88,3.82,1.88,7.83v9.65c0,4.35-0.54,7.21-1.63,8.59
	c-1.09,1.38-3.04,2.07-5.84,2.07c-0.62,0-1.38-0.02-2.24-0.07V69.02c0.7,0,1.36,0.02,1.99,0.05
	C112.88,69.25,114.83,69.84,115.87,70.84z M108.03,134.88v-15.8h8.19c4.84,0,9.02-0.48,12.52-1.45
	C123.21,124.78,116.14,130.69,108.03,134.88z M132.34,52.77c-1.45-0.73-3.08-1.35-4.9-1.89c-3.61-1.05-8.45-1.67-14.54-1.87
	c-1.48-0.05-3.03-0.08-4.65-0.08H93.08v0.03H77.49v92.76c-2.6-0.09-5.15-0.33-7.65-0.72c-29.7-4.68-52.43-30.39-52.43-61.41
	c0-11.66,3.21-22.58,8.8-31.9c0.3,4.54,1.29,8.56,2.96,12.04c2.04,4.26,7.7,8.99,17,14.22c11.07,6.16,17.21,9.87,18.41,11.12
	c1.15,1.25,1.72,4.35,1.72,9.32c0,3.61-0.45,5.97-1.33,7.09c-0.89,1.12-2.46,1.68-4.7,1.68c-2.09,0-3.48-0.83-4.19-2.5
	c-0.7-1.67-1.05-5.3-1.05-10.89v-6.58H26.98v5.01c0,8.67,1.07,15.15,3.21,19.43c2.15,4.28,6.07,7.68,11.79,10.18
	c5.72,2.51,12.6,3.76,20.64,3.76c2.54,0,4.94-0.14,7.22-0.43V57.34c-5.09-2.61-8.55-4.64-10.39-6.12c-2.23-1.78-3.55-3.41-4-4.9
	c-0.45-1.49-0.67-3.82-0.67-7.01c0-2.35,0.45-4.11,1.34-5.29c0.88-1.18,2.22-1.76,3.99-1.76c2.2,0,3.57,0.64,4.11,1.92
	c0.48,1.11,0.75,3.6,0.81,7.43h28.04c-0.04-4.57-0.3-7.97-0.81-10.21c-0.55-2.45-2.11-5.11-4.7-7.99c-2.15-2.38-5.06-4.38-8.75-5.98
	c0.26-0.01,0.52-0.01,0.77-0.01c26.07,0,48.38,16.04,57.62,38.79C135.92,54.89,134.3,53.74,132.34,52.77z"/>
</svg>
